<mxfile host="app.diagrams.net" agent="Mozilla/5.0 (Windows NT 10.0; Win64; x64; rv:135.0) Gecko/20100101 Firefox/135.0" version="26.0.14" pages="2">
  <diagram name="Clases" id="vQM1dMcMp_MvwlvVgjjf">
    <mxGraphModel dx="1889" dy="1645" grid="1" gridSize="10" guides="1" tooltips="1" connect="1" arrows="1" fold="1" page="1" pageScale="1" pageWidth="850" pageHeight="1100" math="0" shadow="0">
      <root>
        <mxCell id="0" />
        <mxCell id="1" parent="0" />
        <mxCell id="OV8zz82Xh7h7qym-2DyT-1" value="ComputadoraEnProceso" style="swimlane;fontStyle=1;align=center;verticalAlign=top;childLayout=stackLayout;horizontal=1;startSize=26;horizontalStack=0;resizeParent=1;resizeParentMax=0;resizeLast=0;collapsible=1;marginBottom=0;whiteSpace=wrap;html=1;" parent="1" vertex="1">
          <mxGeometry x="380" y="220" width="200" height="164" as="geometry" />
        </mxCell>
        <mxCell id="4wLd3-VDK6zFSBHTIyKa-1" value="- id: String" style="text;strokeColor=none;fillColor=none;align=left;verticalAlign=top;spacingLeft=4;spacingRight=4;overflow=hidden;rotatable=0;points=[[0,0.5],[1,0.5]];portConstraint=eastwest;whiteSpace=wrap;html=1;" vertex="1" parent="OV8zz82Xh7h7qym-2DyT-1">
          <mxGeometry y="26" width="200" height="26" as="geometry" />
        </mxCell>
        <mxCell id="6kO46lTJyPCkU-iPdaIk-1" value="- computadoraFinal: Computadora" style="text;strokeColor=none;fillColor=none;align=left;verticalAlign=top;spacingLeft=4;spacingRight=4;overflow=hidden;rotatable=0;points=[[0,0.5],[1,0.5]];portConstraint=eastwest;whiteSpace=wrap;html=1;" vertex="1" parent="OV8zz82Xh7h7qym-2DyT-1">
          <mxGeometry y="52" width="200" height="26" as="geometry" />
        </mxCell>
        <mxCell id="OV8zz82Xh7h7qym-2DyT-2" value="- componentes: List&amp;lt;Componente&amp;gt;" style="text;strokeColor=none;fillColor=none;align=left;verticalAlign=top;spacingLeft=4;spacingRight=4;overflow=hidden;rotatable=0;points=[[0,0.5],[1,0.5]];portConstraint=eastwest;whiteSpace=wrap;html=1;" parent="OV8zz82Xh7h7qym-2DyT-1" vertex="1">
          <mxGeometry y="78" width="200" height="26" as="geometry" />
        </mxCell>
        <mxCell id="OV8zz82Xh7h7qym-2DyT-17" value="- ensamblador: Usuario" style="text;strokeColor=none;fillColor=none;align=left;verticalAlign=top;spacingLeft=4;spacingRight=4;overflow=hidden;rotatable=0;points=[[0,0.5],[1,0.5]];portConstraint=eastwest;whiteSpace=wrap;html=1;" parent="OV8zz82Xh7h7qym-2DyT-1" vertex="1">
          <mxGeometry y="104" width="200" height="26" as="geometry" />
        </mxCell>
        <mxCell id="OV8zz82Xh7h7qym-2DyT-24" value="- cantidad: int" style="text;strokeColor=none;fillColor=none;align=left;verticalAlign=top;spacingLeft=4;spacingRight=4;overflow=hidden;rotatable=0;points=[[0,0.5],[1,0.5]];portConstraint=eastwest;whiteSpace=wrap;html=1;" parent="OV8zz82Xh7h7qym-2DyT-1" vertex="1">
          <mxGeometry y="130" width="200" height="26" as="geometry" />
        </mxCell>
        <mxCell id="OV8zz82Xh7h7qym-2DyT-3" value="" style="line;strokeWidth=1;fillColor=none;align=left;verticalAlign=middle;spacingTop=-1;spacingLeft=3;spacingRight=3;rotatable=0;labelPosition=right;points=[];portConstraint=eastwest;strokeColor=inherit;" parent="OV8zz82Xh7h7qym-2DyT-1" vertex="1">
          <mxGeometry y="156" width="200" height="8" as="geometry" />
        </mxCell>
        <mxCell id="OV8zz82Xh7h7qym-2DyT-5" value="&lt;div&gt;Componente&lt;/div&gt;" style="swimlane;fontStyle=1;align=center;verticalAlign=top;childLayout=stackLayout;horizontal=1;startSize=26;horizontalStack=0;resizeParent=1;resizeParentMax=0;resizeLast=0;collapsible=1;marginBottom=0;whiteSpace=wrap;html=1;" parent="1" vertex="1">
          <mxGeometry x="105" y="173" width="160" height="86" as="geometry" />
        </mxCell>
        <mxCell id="OV8zz82Xh7h7qym-2DyT-6" value="- nombre: String" style="text;strokeColor=none;fillColor=none;align=left;verticalAlign=top;spacingLeft=4;spacingRight=4;overflow=hidden;rotatable=0;points=[[0,0.5],[1,0.5]];portConstraint=eastwest;whiteSpace=wrap;html=1;" parent="OV8zz82Xh7h7qym-2DyT-5" vertex="1">
          <mxGeometry y="26" width="160" height="26" as="geometry" />
        </mxCell>
        <mxCell id="EuoetQcOSFYTuAteOdN0-1" value="- costoUnitario: double" style="text;strokeColor=none;fillColor=none;align=left;verticalAlign=top;spacingLeft=4;spacingRight=4;overflow=hidden;rotatable=0;points=[[0,0.5],[1,0.5]];portConstraint=eastwest;whiteSpace=wrap;html=1;" vertex="1" parent="OV8zz82Xh7h7qym-2DyT-5">
          <mxGeometry y="52" width="160" height="26" as="geometry" />
        </mxCell>
        <mxCell id="OV8zz82Xh7h7qym-2DyT-7" value="" style="line;strokeWidth=1;fillColor=none;align=left;verticalAlign=middle;spacingTop=-1;spacingLeft=3;spacingRight=3;rotatable=0;labelPosition=right;points=[];portConstraint=eastwest;strokeColor=inherit;" parent="OV8zz82Xh7h7qym-2DyT-5" vertex="1">
          <mxGeometry y="78" width="160" height="8" as="geometry" />
        </mxCell>
        <mxCell id="OV8zz82Xh7h7qym-2DyT-9" value="Usuario" style="swimlane;fontStyle=1;align=center;verticalAlign=top;childLayout=stackLayout;horizontal=1;startSize=26;horizontalStack=0;resizeParent=1;resizeParentMax=0;resizeLast=0;collapsible=1;marginBottom=0;whiteSpace=wrap;html=1;" parent="1" vertex="1">
          <mxGeometry x="500" y="10" width="160" height="112" as="geometry" />
        </mxCell>
        <mxCell id="OV8zz82Xh7h7qym-2DyT-18" value="- usuario: String" style="text;strokeColor=none;fillColor=none;align=left;verticalAlign=top;spacingLeft=4;spacingRight=4;overflow=hidden;rotatable=0;points=[[0,0.5],[1,0.5]];portConstraint=eastwest;whiteSpace=wrap;html=1;" parent="OV8zz82Xh7h7qym-2DyT-9" vertex="1">
          <mxGeometry y="26" width="160" height="26" as="geometry" />
        </mxCell>
        <mxCell id="OV8zz82Xh7h7qym-2DyT-19" value="- rol: Rol" style="text;strokeColor=none;fillColor=none;align=left;verticalAlign=top;spacingLeft=4;spacingRight=4;overflow=hidden;rotatable=0;points=[[0,0.5],[1,0.5]];portConstraint=eastwest;whiteSpace=wrap;html=1;" parent="OV8zz82Xh7h7qym-2DyT-9" vertex="1">
          <mxGeometry y="52" width="160" height="26" as="geometry" />
        </mxCell>
        <mxCell id="OV8zz82Xh7h7qym-2DyT-11" value="" style="line;strokeWidth=1;fillColor=none;align=left;verticalAlign=middle;spacingTop=-1;spacingLeft=3;spacingRight=3;rotatable=0;labelPosition=right;points=[];portConstraint=eastwest;strokeColor=inherit;" parent="OV8zz82Xh7h7qym-2DyT-9" vertex="1">
          <mxGeometry y="78" width="160" height="8" as="geometry" />
        </mxCell>
        <mxCell id="OV8zz82Xh7h7qym-2DyT-12" value="+ method(type): type" style="text;strokeColor=none;fillColor=none;align=left;verticalAlign=top;spacingLeft=4;spacingRight=4;overflow=hidden;rotatable=0;points=[[0,0.5],[1,0.5]];portConstraint=eastwest;whiteSpace=wrap;html=1;" parent="OV8zz82Xh7h7qym-2DyT-9" vertex="1">
          <mxGeometry y="86" width="160" height="26" as="geometry" />
        </mxCell>
        <mxCell id="OV8zz82Xh7h7qym-2DyT-20" value="Rol" style="swimlane;fontStyle=1;align=center;verticalAlign=top;childLayout=stackLayout;horizontal=1;startSize=26;horizontalStack=0;resizeParent=1;resizeParentMax=0;resizeLast=0;collapsible=1;marginBottom=0;whiteSpace=wrap;html=1;" parent="1" vertex="1">
          <mxGeometry x="760" y="-180" width="160" height="86" as="geometry" />
        </mxCell>
        <mxCell id="OV8zz82Xh7h7qym-2DyT-23" value="- id: int" style="text;strokeColor=none;fillColor=none;align=left;verticalAlign=top;spacingLeft=4;spacingRight=4;overflow=hidden;rotatable=0;points=[[0,0.5],[1,0.5]];portConstraint=eastwest;whiteSpace=wrap;html=1;" parent="OV8zz82Xh7h7qym-2DyT-20" vertex="1">
          <mxGeometry y="26" width="160" height="26" as="geometry" />
        </mxCell>
        <mxCell id="OV8zz82Xh7h7qym-2DyT-21" value="- nombre: String" style="text;strokeColor=none;fillColor=none;align=left;verticalAlign=top;spacingLeft=4;spacingRight=4;overflow=hidden;rotatable=0;points=[[0,0.5],[1,0.5]];portConstraint=eastwest;whiteSpace=wrap;html=1;" parent="OV8zz82Xh7h7qym-2DyT-20" vertex="1">
          <mxGeometry y="52" width="160" height="26" as="geometry" />
        </mxCell>
        <mxCell id="OV8zz82Xh7h7qym-2DyT-22" value="" style="line;strokeWidth=1;fillColor=none;align=left;verticalAlign=middle;spacingTop=-1;spacingLeft=3;spacingRight=3;rotatable=0;labelPosition=right;points=[];portConstraint=eastwest;strokeColor=inherit;" parent="OV8zz82Xh7h7qym-2DyT-20" vertex="1">
          <mxGeometry y="78" width="160" height="8" as="geometry" />
        </mxCell>
        <mxCell id="Y1dULOPnEtKFGhbIV2kk-1" value="Computadora" style="swimlane;fontStyle=1;align=center;verticalAlign=top;childLayout=stackLayout;horizontal=1;startSize=26;horizontalStack=0;resizeParent=1;resizeParentMax=0;resizeLast=0;collapsible=1;marginBottom=0;whiteSpace=wrap;html=1;" vertex="1" parent="1">
          <mxGeometry x="-140" y="350" width="200" height="86" as="geometry" />
        </mxCell>
        <mxCell id="Y1dULOPnEtKFGhbIV2kk-2" value="- nombre: String" style="text;strokeColor=none;fillColor=none;align=left;verticalAlign=top;spacingLeft=4;spacingRight=4;overflow=hidden;rotatable=0;points=[[0,0.5],[1,0.5]];portConstraint=eastwest;whiteSpace=wrap;html=1;" vertex="1" parent="Y1dULOPnEtKFGhbIV2kk-1">
          <mxGeometry y="26" width="200" height="26" as="geometry" />
        </mxCell>
        <mxCell id="Y1dULOPnEtKFGhbIV2kk-3" value="- precioUnitario: double" style="text;strokeColor=none;fillColor=none;align=left;verticalAlign=top;spacingLeft=4;spacingRight=4;overflow=hidden;rotatable=0;points=[[0,0.5],[1,0.5]];portConstraint=eastwest;whiteSpace=wrap;html=1;" vertex="1" parent="Y1dULOPnEtKFGhbIV2kk-1">
          <mxGeometry y="52" width="200" height="26" as="geometry" />
        </mxCell>
        <mxCell id="Y1dULOPnEtKFGhbIV2kk-5" value="" style="line;strokeWidth=1;fillColor=none;align=left;verticalAlign=middle;spacingTop=-1;spacingLeft=3;spacingRight=3;rotatable=0;labelPosition=right;points=[];portConstraint=eastwest;strokeColor=inherit;" vertex="1" parent="Y1dULOPnEtKFGhbIV2kk-1">
          <mxGeometry y="78" width="200" height="8" as="geometry" />
        </mxCell>
        <mxCell id="uXT87xdqf33poIlRoZdJ-1" value="Persona" style="swimlane;fontStyle=1;align=center;verticalAlign=top;childLayout=stackLayout;horizontal=1;startSize=26;horizontalStack=0;resizeParent=1;resizeParentMax=0;resizeLast=0;collapsible=1;marginBottom=0;whiteSpace=wrap;html=1;" vertex="1" parent="1">
          <mxGeometry x="370" y="-120" width="160" height="60" as="geometry" />
        </mxCell>
        <mxCell id="uXT87xdqf33poIlRoZdJ-2" value="- nombre:String" style="text;strokeColor=none;fillColor=none;align=left;verticalAlign=top;spacingLeft=4;spacingRight=4;overflow=hidden;rotatable=0;points=[[0,0.5],[1,0.5]];portConstraint=eastwest;whiteSpace=wrap;html=1;" vertex="1" parent="uXT87xdqf33poIlRoZdJ-1">
          <mxGeometry y="26" width="160" height="26" as="geometry" />
        </mxCell>
        <mxCell id="uXT87xdqf33poIlRoZdJ-5" value="" style="line;strokeWidth=1;fillColor=none;align=left;verticalAlign=middle;spacingTop=-1;spacingLeft=3;spacingRight=3;rotatable=0;labelPosition=right;points=[];portConstraint=eastwest;strokeColor=inherit;" vertex="1" parent="uXT87xdqf33poIlRoZdJ-1">
          <mxGeometry y="52" width="160" height="8" as="geometry" />
        </mxCell>
        <mxCell id="Nu6APLEZ3GB9LpN3ooq7-1" value="Cliente" style="swimlane;fontStyle=1;align=center;verticalAlign=top;childLayout=stackLayout;horizontal=1;startSize=26;horizontalStack=0;resizeParent=1;resizeParentMax=0;resizeLast=0;collapsible=1;marginBottom=0;whiteSpace=wrap;html=1;" vertex="1" parent="1">
          <mxGeometry x="260" y="10" width="160" height="86" as="geometry" />
        </mxCell>
        <mxCell id="Nu6APLEZ3GB9LpN3ooq7-3" value="- nit: String" style="text;strokeColor=none;fillColor=none;align=left;verticalAlign=top;spacingLeft=4;spacingRight=4;overflow=hidden;rotatable=0;points=[[0,0.5],[1,0.5]];portConstraint=eastwest;whiteSpace=wrap;html=1;" vertex="1" parent="Nu6APLEZ3GB9LpN3ooq7-1">
          <mxGeometry y="26" width="160" height="26" as="geometry" />
        </mxCell>
        <mxCell id="Nu6APLEZ3GB9LpN3ooq7-4" value="- direccion: String" style="text;strokeColor=none;fillColor=none;align=left;verticalAlign=top;spacingLeft=4;spacingRight=4;overflow=hidden;rotatable=0;points=[[0,0.5],[1,0.5]];portConstraint=eastwest;whiteSpace=wrap;html=1;" vertex="1" parent="Nu6APLEZ3GB9LpN3ooq7-1">
          <mxGeometry y="52" width="160" height="26" as="geometry" />
        </mxCell>
        <mxCell id="Nu6APLEZ3GB9LpN3ooq7-5" value="" style="line;strokeWidth=1;fillColor=none;align=left;verticalAlign=middle;spacingTop=-1;spacingLeft=3;spacingRight=3;rotatable=0;labelPosition=right;points=[];portConstraint=eastwest;strokeColor=inherit;" vertex="1" parent="Nu6APLEZ3GB9LpN3ooq7-1">
          <mxGeometry y="78" width="160" height="8" as="geometry" />
        </mxCell>
        <mxCell id="Np681vwnC3tx0rF4vMTm-1" value="PasswordVTO" style="swimlane;fontStyle=1;align=center;verticalAlign=top;childLayout=stackLayout;horizontal=1;startSize=26;horizontalStack=0;resizeParent=1;resizeParentMax=0;resizeLast=0;collapsible=1;marginBottom=0;whiteSpace=wrap;html=1;" vertex="1" parent="1">
          <mxGeometry x="770" y="10" width="160" height="60" as="geometry" />
        </mxCell>
        <mxCell id="Np681vwnC3tx0rF4vMTm-2" value="- password: String" style="text;strokeColor=none;fillColor=none;align=left;verticalAlign=top;spacingLeft=4;spacingRight=4;overflow=hidden;rotatable=0;points=[[0,0.5],[1,0.5]];portConstraint=eastwest;whiteSpace=wrap;html=1;" vertex="1" parent="Np681vwnC3tx0rF4vMTm-1">
          <mxGeometry y="26" width="160" height="26" as="geometry" />
        </mxCell>
        <mxCell id="Np681vwnC3tx0rF4vMTm-4" value="" style="line;strokeWidth=1;fillColor=none;align=left;verticalAlign=middle;spacingTop=-1;spacingLeft=3;spacingRight=3;rotatable=0;labelPosition=right;points=[];portConstraint=eastwest;strokeColor=inherit;" vertex="1" parent="Np681vwnC3tx0rF4vMTm-1">
          <mxGeometry y="52" width="160" height="8" as="geometry" />
        </mxCell>
        <mxCell id="XpJVs31wQCeo8bwk4ev0-2" value="Extends" style="endArrow=block;endSize=16;endFill=0;html=1;rounded=0;" edge="1" parent="1" source="OV8zz82Xh7h7qym-2DyT-9" target="uXT87xdqf33poIlRoZdJ-1">
          <mxGeometry width="160" relative="1" as="geometry">
            <mxPoint x="430" y="-10" as="sourcePoint" />
            <mxPoint x="590" y="-10" as="targetPoint" />
          </mxGeometry>
        </mxCell>
        <mxCell id="XpJVs31wQCeo8bwk4ev0-3" value="Extends" style="endArrow=block;endSize=16;endFill=0;html=1;rounded=0;" edge="1" parent="1" source="Nu6APLEZ3GB9LpN3ooq7-1" target="uXT87xdqf33poIlRoZdJ-1">
          <mxGeometry width="160" relative="1" as="geometry">
            <mxPoint x="551" y="20" as="sourcePoint" />
            <mxPoint x="501" y="-50" as="targetPoint" />
          </mxGeometry>
        </mxCell>
      </root>
    </mxGraphModel>
  </diagram>
  <diagram id="b5aYoaLsboa2oMYpeHt_" name="ER">
    <mxGraphModel dx="1944" dy="574" grid="1" gridSize="10" guides="1" tooltips="1" connect="1" arrows="1" fold="1" page="1" pageScale="1" pageWidth="850" pageHeight="1100" math="0" shadow="0">
      <root>
        <mxCell id="0" />
        <mxCell id="1" parent="0" />
        <mxCell id="pqRXHCaq6eYbeY7qeOLE-47" style="edgeStyle=none;shape=connector;rounded=0;orthogonalLoop=1;jettySize=auto;html=1;strokeColor=default;align=center;verticalAlign=middle;fontFamily=Helvetica;fontSize=11;fontColor=default;labelBackgroundColor=default;startFill=0;endArrow=none;" parent="1" source="jZJPmKeAmW9MTYBugnMh-2" target="pqRXHCaq6eYbeY7qeOLE-5" edge="1">
          <mxGeometry relative="1" as="geometry" />
        </mxCell>
        <mxCell id="jZJPmKeAmW9MTYBugnMh-2" value="componente" style="whiteSpace=wrap;html=1;align=center;" parent="1" vertex="1">
          <mxGeometry x="-220" y="160" width="100" height="40" as="geometry" />
        </mxCell>
        <mxCell id="PHtaCudt1GkWqmcpYVaI-1" value="usuarios" style="whiteSpace=wrap;html=1;align=center;" parent="1" vertex="1">
          <mxGeometry x="-30" y="445" width="100" height="40" as="geometry" />
        </mxCell>
        <mxCell id="pqRXHCaq6eYbeY7qeOLE-4" value="computadoras" style="whiteSpace=wrap;html=1;align=center;" parent="1" vertex="1">
          <mxGeometry x="690.21" y="490" width="100" height="40" as="geometry" />
        </mxCell>
        <mxCell id="pqRXHCaq6eYbeY7qeOLE-5" value="asignacion_piezas" style="shape=associativeEntity;whiteSpace=wrap;html=1;align=center;" parent="1" vertex="1">
          <mxGeometry x="209.59" y="150" width="140" height="60" as="geometry" />
        </mxCell>
        <mxCell id="pqRXHCaq6eYbeY7qeOLE-10" style="shape=connector;rounded=0;orthogonalLoop=1;jettySize=auto;html=1;strokeColor=default;align=center;verticalAlign=middle;fontFamily=Helvetica;fontSize=11;fontColor=default;labelBackgroundColor=default;startFill=0;endArrow=none;" parent="1" source="pqRXHCaq6eYbeY7qeOLE-14" target="jZJPmKeAmW9MTYBugnMh-2" edge="1">
          <mxGeometry relative="1" as="geometry">
            <mxPoint x="-272.55017187547764" y="216.74852235593823" as="sourcePoint" />
          </mxGeometry>
        </mxCell>
        <mxCell id="pqRXHCaq6eYbeY7qeOLE-14" value="nombre" style="ellipse;whiteSpace=wrap;html=1;align=center;fontStyle=4;fontFamily=Helvetica;fontSize=11;fontColor=default;labelBackgroundColor=default;" parent="1" vertex="1">
          <mxGeometry x="-320" y="230" width="100" height="40" as="geometry" />
        </mxCell>
        <mxCell id="pqRXHCaq6eYbeY7qeOLE-20" style="edgeStyle=none;shape=connector;rounded=0;orthogonalLoop=1;jettySize=auto;html=1;strokeColor=default;align=center;verticalAlign=middle;fontFamily=Helvetica;fontSize=11;fontColor=default;labelBackgroundColor=default;startFill=0;endArrow=none;" parent="1" source="pqRXHCaq6eYbeY7qeOLE-16" target="jZJPmKeAmW9MTYBugnMh-2" edge="1">
          <mxGeometry relative="1" as="geometry" />
        </mxCell>
        <mxCell id="pqRXHCaq6eYbeY7qeOLE-16" value="stock" style="ellipse;whiteSpace=wrap;html=1;align=center;fontFamily=Helvetica;fontSize=11;fontColor=default;labelBackgroundColor=default;" parent="1" vertex="1">
          <mxGeometry x="-100" y="230" width="100" height="40" as="geometry" />
        </mxCell>
        <mxCell id="pqRXHCaq6eYbeY7qeOLE-19" style="edgeStyle=none;shape=connector;rounded=0;orthogonalLoop=1;jettySize=auto;html=1;strokeColor=default;align=center;verticalAlign=middle;fontFamily=Helvetica;fontSize=11;fontColor=default;labelBackgroundColor=default;startFill=0;endArrow=none;" parent="1" source="pqRXHCaq6eYbeY7qeOLE-17" target="jZJPmKeAmW9MTYBugnMh-2" edge="1">
          <mxGeometry relative="1" as="geometry" />
        </mxCell>
        <mxCell id="pqRXHCaq6eYbeY7qeOLE-17" value="costo_unitario" style="ellipse;whiteSpace=wrap;html=1;align=center;fontFamily=Helvetica;fontSize=11;fontColor=default;labelBackgroundColor=default;" parent="1" vertex="1">
          <mxGeometry x="-220" y="250" width="100" height="40" as="geometry" />
        </mxCell>
        <mxCell id="pqRXHCaq6eYbeY7qeOLE-22" style="edgeStyle=none;shape=connector;rounded=0;orthogonalLoop=1;jettySize=auto;html=1;strokeColor=default;align=center;verticalAlign=middle;fontFamily=Helvetica;fontSize=11;fontColor=default;labelBackgroundColor=default;startFill=0;endArrow=none;" parent="1" source="pqRXHCaq6eYbeY7qeOLE-21" target="pqRXHCaq6eYbeY7qeOLE-5" edge="1">
          <mxGeometry relative="1" as="geometry">
            <mxPoint x="119.9974521367993" y="264.12354268963577" as="sourcePoint" />
          </mxGeometry>
        </mxCell>
        <mxCell id="pqRXHCaq6eYbeY7qeOLE-21" value="numero_operacion" style="ellipse;whiteSpace=wrap;html=1;align=center;fontStyle=4;fontFamily=Helvetica;fontSize=11;fontColor=default;labelBackgroundColor=default;" parent="1" vertex="1">
          <mxGeometry x="60" y="200" width="110" height="40" as="geometry" />
        </mxCell>
        <mxCell id="pqRXHCaq6eYbeY7qeOLE-26" style="edgeStyle=none;shape=connector;rounded=0;orthogonalLoop=1;jettySize=auto;html=1;strokeColor=default;align=center;verticalAlign=middle;fontFamily=Helvetica;fontSize=11;fontColor=default;labelBackgroundColor=default;startFill=0;endArrow=none;" parent="1" source="pqRXHCaq6eYbeY7qeOLE-23" target="pqRXHCaq6eYbeY7qeOLE-5" edge="1">
          <mxGeometry relative="1" as="geometry" />
        </mxCell>
        <mxCell id="pqRXHCaq6eYbeY7qeOLE-23" value="nombre_componente" style="ellipse;whiteSpace=wrap;html=1;align=center;fontFamily=Helvetica;fontSize=11;fontColor=default;labelBackgroundColor=default;" parent="1" vertex="1">
          <mxGeometry x="100" y="250" width="120" height="40" as="geometry" />
        </mxCell>
        <mxCell id="pqRXHCaq6eYbeY7qeOLE-27" style="edgeStyle=none;shape=connector;rounded=0;orthogonalLoop=1;jettySize=auto;html=1;strokeColor=default;align=center;verticalAlign=middle;fontFamily=Helvetica;fontSize=11;fontColor=default;labelBackgroundColor=default;startFill=0;endArrow=none;" parent="1" source="pqRXHCaq6eYbeY7qeOLE-25" target="pqRXHCaq6eYbeY7qeOLE-5" edge="1">
          <mxGeometry relative="1" as="geometry" />
        </mxCell>
        <mxCell id="pqRXHCaq6eYbeY7qeOLE-25" value="nombre_computadora" style="ellipse;whiteSpace=wrap;html=1;align=center;fontFamily=Helvetica;fontSize=11;fontColor=default;labelBackgroundColor=default;" parent="1" vertex="1">
          <mxGeometry x="219.59" y="260" width="120" height="40" as="geometry" />
        </mxCell>
        <mxCell id="pqRXHCaq6eYbeY7qeOLE-29" style="edgeStyle=none;shape=connector;rounded=0;orthogonalLoop=1;jettySize=auto;html=1;strokeColor=default;align=center;verticalAlign=middle;fontFamily=Helvetica;fontSize=11;fontColor=default;labelBackgroundColor=default;startFill=0;endArrow=none;" parent="1" source="pqRXHCaq6eYbeY7qeOLE-28" target="pqRXHCaq6eYbeY7qeOLE-5" edge="1">
          <mxGeometry relative="1" as="geometry" />
        </mxCell>
        <mxCell id="pqRXHCaq6eYbeY7qeOLE-28" value="cantidad" style="ellipse;whiteSpace=wrap;html=1;align=center;fontFamily=Helvetica;fontSize=11;fontColor=default;labelBackgroundColor=default;" parent="1" vertex="1">
          <mxGeometry x="410.00000000000006" y="200" width="100" height="40" as="geometry" />
        </mxCell>
        <mxCell id="pqRXHCaq6eYbeY7qeOLE-38" style="edgeStyle=none;shape=connector;rounded=0;orthogonalLoop=1;jettySize=auto;html=1;strokeColor=default;align=center;verticalAlign=middle;fontFamily=Helvetica;fontSize=11;fontColor=default;labelBackgroundColor=default;startFill=0;endArrow=none;" parent="1" source="pqRXHCaq6eYbeY7qeOLE-37" target="pqRXHCaq6eYbeY7qeOLE-4" edge="1">
          <mxGeometry relative="1" as="geometry" />
        </mxCell>
        <mxCell id="pqRXHCaq6eYbeY7qeOLE-37" value="cantidad" style="ellipse;whiteSpace=wrap;html=1;align=center;" parent="1" vertex="1">
          <mxGeometry x="820" y="560" width="100" height="40" as="geometry" />
        </mxCell>
        <mxCell id="pqRXHCaq6eYbeY7qeOLE-54" style="edgeStyle=none;shape=connector;rounded=0;orthogonalLoop=1;jettySize=auto;html=1;strokeColor=default;align=center;verticalAlign=middle;fontFamily=Helvetica;fontSize=11;fontColor=default;labelBackgroundColor=default;startFill=0;endArrow=none;" parent="1" source="pqRXHCaq6eYbeY7qeOLE-49" target="pqRXHCaq6eYbeY7qeOLE-4" edge="1">
          <mxGeometry relative="1" as="geometry" />
        </mxCell>
        <mxCell id="pqRXHCaq6eYbeY7qeOLE-49" value="precio_unitario" style="ellipse;whiteSpace=wrap;html=1;align=center;" parent="1" vertex="1">
          <mxGeometry x="690" y="610" width="100" height="40" as="geometry" />
        </mxCell>
        <mxCell id="pqRXHCaq6eYbeY7qeOLE-53" style="edgeStyle=none;shape=connector;rounded=0;orthogonalLoop=1;jettySize=auto;html=1;strokeColor=default;align=center;verticalAlign=middle;fontFamily=Helvetica;fontSize=11;fontColor=default;labelBackgroundColor=default;startFill=0;endArrow=none;" parent="1" source="pqRXHCaq6eYbeY7qeOLE-52" target="pqRXHCaq6eYbeY7qeOLE-4" edge="1">
          <mxGeometry relative="1" as="geometry" />
        </mxCell>
        <mxCell id="pqRXHCaq6eYbeY7qeOLE-52" value="nombre" style="ellipse;whiteSpace=wrap;html=1;align=center;fontStyle=4;fontFamily=Helvetica;fontSize=11;fontColor=default;labelBackgroundColor=default;" parent="1" vertex="1">
          <mxGeometry x="560" y="570" width="100" height="40" as="geometry" />
        </mxCell>
        <mxCell id="pqRXHCaq6eYbeY7qeOLE-65" style="edgeStyle=none;shape=connector;rounded=0;orthogonalLoop=1;jettySize=auto;html=1;strokeColor=default;align=center;verticalAlign=middle;fontFamily=Helvetica;fontSize=11;fontColor=default;labelBackgroundColor=default;startFill=0;endArrow=none;" parent="1" source="pqRXHCaq6eYbeY7qeOLE-55" target="pqRXHCaq6eYbeY7qeOLE-4" edge="1">
          <mxGeometry relative="1" as="geometry" />
        </mxCell>
        <mxCell id="pqRXHCaq6eYbeY7qeOLE-55" value="ensamble_computadoras" style="shape=associativeEntity;whiteSpace=wrap;html=1;align=center;" parent="1" vertex="1">
          <mxGeometry x="650" y="150" width="180.41" height="60" as="geometry" />
        </mxCell>
        <mxCell id="pqRXHCaq6eYbeY7qeOLE-56" style="edgeStyle=none;shape=connector;rounded=0;orthogonalLoop=1;jettySize=auto;html=1;strokeColor=default;align=center;verticalAlign=middle;fontFamily=Helvetica;fontSize=11;fontColor=default;labelBackgroundColor=default;startFill=0;endArrow=none;" parent="1" source="pqRXHCaq6eYbeY7qeOLE-57" target="pqRXHCaq6eYbeY7qeOLE-55" edge="1">
          <mxGeometry relative="1" as="geometry">
            <mxPoint x="579.9974521367993" y="264.12354268963577" as="sourcePoint" />
          </mxGeometry>
        </mxCell>
        <mxCell id="pqRXHCaq6eYbeY7qeOLE-57" value="id" style="ellipse;whiteSpace=wrap;html=1;align=center;fontStyle=4;fontFamily=Helvetica;fontSize=11;fontColor=default;labelBackgroundColor=default;" parent="1" vertex="1">
          <mxGeometry x="530" y="200" width="100" height="40" as="geometry" />
        </mxCell>
        <mxCell id="pqRXHCaq6eYbeY7qeOLE-58" style="edgeStyle=none;shape=connector;rounded=0;orthogonalLoop=1;jettySize=auto;html=1;strokeColor=default;align=center;verticalAlign=middle;fontFamily=Helvetica;fontSize=11;fontColor=default;labelBackgroundColor=default;startFill=0;endArrow=none;" parent="1" source="pqRXHCaq6eYbeY7qeOLE-59" target="pqRXHCaq6eYbeY7qeOLE-55" edge="1">
          <mxGeometry relative="1" as="geometry" />
        </mxCell>
        <mxCell id="pqRXHCaq6eYbeY7qeOLE-59" value="computadora" style="ellipse;whiteSpace=wrap;html=1;align=center;fontFamily=Helvetica;fontSize=11;fontColor=default;labelBackgroundColor=default;" parent="1" vertex="1">
          <mxGeometry x="590.21" y="260" width="100" height="40" as="geometry" />
        </mxCell>
        <mxCell id="pqRXHCaq6eYbeY7qeOLE-60" style="edgeStyle=none;shape=connector;rounded=0;orthogonalLoop=1;jettySize=auto;html=1;strokeColor=default;align=center;verticalAlign=middle;fontFamily=Helvetica;fontSize=11;fontColor=default;labelBackgroundColor=default;startFill=0;endArrow=none;" parent="1" source="pqRXHCaq6eYbeY7qeOLE-61" target="pqRXHCaq6eYbeY7qeOLE-55" edge="1">
          <mxGeometry relative="1" as="geometry" />
        </mxCell>
        <mxCell id="pqRXHCaq6eYbeY7qeOLE-61" value="usuario" style="ellipse;whiteSpace=wrap;html=1;align=center;fontFamily=Helvetica;fontSize=11;fontColor=default;labelBackgroundColor=default;" parent="1" vertex="1">
          <mxGeometry x="760" y="250" width="120" height="40" as="geometry" />
        </mxCell>
        <mxCell id="pqRXHCaq6eYbeY7qeOLE-62" style="edgeStyle=none;shape=connector;rounded=0;orthogonalLoop=1;jettySize=auto;html=1;strokeColor=default;align=center;verticalAlign=middle;fontFamily=Helvetica;fontSize=11;fontColor=default;labelBackgroundColor=default;startFill=0;endArrow=none;" parent="1" source="pqRXHCaq6eYbeY7qeOLE-63" target="pqRXHCaq6eYbeY7qeOLE-55" edge="1">
          <mxGeometry relative="1" as="geometry" />
        </mxCell>
        <mxCell id="pqRXHCaq6eYbeY7qeOLE-63" value="fecha_ultimo_cambio" style="ellipse;whiteSpace=wrap;html=1;align=center;fontFamily=Helvetica;fontSize=11;fontColor=default;labelBackgroundColor=default;" parent="1" vertex="1">
          <mxGeometry x="860" y="200" width="130" height="40" as="geometry" />
        </mxCell>
        <mxCell id="pqRXHCaq6eYbeY7qeOLE-64" style="edgeStyle=none;shape=connector;rounded=0;orthogonalLoop=1;jettySize=auto;html=1;strokeColor=default;align=center;verticalAlign=middle;fontFamily=Helvetica;fontSize=11;fontColor=default;labelBackgroundColor=default;startFill=0;endArrow=none;" parent="1" source="pqRXHCaq6eYbeY7qeOLE-5" target="pqRXHCaq6eYbeY7qeOLE-55" edge="1">
          <mxGeometry relative="1" as="geometry">
            <mxPoint x="360" y="179.58" as="sourcePoint" />
            <mxPoint x="690" y="179.58" as="targetPoint" />
          </mxGeometry>
        </mxCell>
        <mxCell id="pqRXHCaq6eYbeY7qeOLE-66" value="&lt;div&gt;Aqui se puede agregar un método de validación de computadoras&lt;/div&gt;&lt;div&gt;que verifique que las computadoras poseen todas las piezas&lt;/div&gt;" style="text;html=1;align=center;verticalAlign=middle;resizable=0;points=[];autosize=1;strokeColor=none;fillColor=none;fontFamily=Helvetica;fontSize=11;fontColor=default;labelBackgroundColor=default;" parent="1" vertex="1">
          <mxGeometry x="880" y="360" width="350" height="40" as="geometry" />
        </mxCell>
        <mxCell id="pqRXHCaq6eYbeY7qeOLE-68" style="edgeStyle=none;shape=connector;rounded=0;orthogonalLoop=1;jettySize=auto;html=1;strokeColor=default;align=center;verticalAlign=middle;fontFamily=Helvetica;fontSize=11;fontColor=default;labelBackgroundColor=default;startFill=0;endArrow=none;" parent="1" source="pqRXHCaq6eYbeY7qeOLE-67" target="pqRXHCaq6eYbeY7qeOLE-74" edge="1">
          <mxGeometry relative="1" as="geometry">
            <mxPoint x="330" y="540" as="targetPoint" />
          </mxGeometry>
        </mxCell>
        <mxCell id="pqRXHCaq6eYbeY7qeOLE-67" value="id" style="ellipse;whiteSpace=wrap;html=1;align=center;fontStyle=4;fontFamily=Helvetica;fontSize=11;fontColor=default;labelBackgroundColor=default;" parent="1" vertex="1">
          <mxGeometry x="189.99999999999997" y="560" width="100" height="40" as="geometry" />
        </mxCell>
        <mxCell id="pqRXHCaq6eYbeY7qeOLE-73" style="edgeStyle=none;shape=connector;rounded=0;orthogonalLoop=1;jettySize=auto;html=1;strokeColor=default;align=center;verticalAlign=middle;fontFamily=Helvetica;fontSize=11;fontColor=default;labelBackgroundColor=default;startFill=0;endArrow=none;" parent="1" source="pqRXHCaq6eYbeY7qeOLE-69" target="pqRXHCaq6eYbeY7qeOLE-74" edge="1">
          <mxGeometry relative="1" as="geometry">
            <mxPoint x="393.18181818181847" y="540" as="targetPoint" />
          </mxGeometry>
        </mxCell>
        <mxCell id="pqRXHCaq6eYbeY7qeOLE-69" value="fecha" style="ellipse;whiteSpace=wrap;html=1;align=center;" parent="1" vertex="1">
          <mxGeometry x="450" y="540" width="100" height="40" as="geometry" />
        </mxCell>
        <mxCell id="pqRXHCaq6eYbeY7qeOLE-72" style="edgeStyle=none;shape=connector;rounded=0;orthogonalLoop=1;jettySize=auto;html=1;strokeColor=default;align=center;verticalAlign=middle;fontFamily=Helvetica;fontSize=11;fontColor=default;labelBackgroundColor=default;startFill=0;endArrow=none;" parent="1" source="pqRXHCaq6eYbeY7qeOLE-71" target="pqRXHCaq6eYbeY7qeOLE-74" edge="1">
          <mxGeometry relative="1" as="geometry">
            <mxPoint x="369" y="540" as="targetPoint" />
          </mxGeometry>
        </mxCell>
        <mxCell id="pqRXHCaq6eYbeY7qeOLE-71" value="nombre_computadora" style="ellipse;whiteSpace=wrap;html=1;align=center;" parent="1" vertex="1">
          <mxGeometry x="390" y="600" width="150" height="40" as="geometry" />
        </mxCell>
        <mxCell id="pqRXHCaq6eYbeY7qeOLE-85" style="edgeStyle=none;shape=connector;rounded=0;orthogonalLoop=1;jettySize=auto;html=1;strokeColor=default;align=center;verticalAlign=middle;fontFamily=Helvetica;fontSize=11;fontColor=default;labelBackgroundColor=default;startFill=0;endArrow=none;" parent="1" source="pqRXHCaq6eYbeY7qeOLE-74" target="pqRXHCaq6eYbeY7qeOLE-4" edge="1">
          <mxGeometry relative="1" as="geometry" />
        </mxCell>
        <mxCell id="pqRXHCaq6eYbeY7qeOLE-86" style="edgeStyle=none;shape=connector;rounded=0;orthogonalLoop=1;jettySize=auto;html=1;strokeColor=default;align=center;verticalAlign=middle;fontFamily=Helvetica;fontSize=11;fontColor=default;labelBackgroundColor=default;startFill=0;endArrow=none;" parent="1" source="pqRXHCaq6eYbeY7qeOLE-74" target="pqRXHCaq6eYbeY7qeOLE-84" edge="1">
          <mxGeometry relative="1" as="geometry" />
        </mxCell>
        <mxCell id="pqRXHCaq6eYbeY7qeOLE-74" value="ventas" style="shape=associativeEntity;whiteSpace=wrap;html=1;align=center;fontFamily=Helvetica;fontSize=11;fontColor=default;labelBackgroundColor=default;" parent="1" vertex="1">
          <mxGeometry x="310" y="480" width="140" height="60" as="geometry" />
        </mxCell>
        <mxCell id="pqRXHCaq6eYbeY7qeOLE-80" style="edgeStyle=none;shape=connector;rounded=0;orthogonalLoop=1;jettySize=auto;html=1;strokeColor=default;align=center;verticalAlign=middle;fontFamily=Helvetica;fontSize=11;fontColor=default;labelBackgroundColor=default;startFill=0;endArrow=none;" parent="1" source="pqRXHCaq6eYbeY7qeOLE-81" target="pqRXHCaq6eYbeY7qeOLE-84" edge="1">
          <mxGeometry relative="1" as="geometry">
            <mxPoint x="393.18181818181847" y="770" as="targetPoint" />
          </mxGeometry>
        </mxCell>
        <mxCell id="pqRXHCaq6eYbeY7qeOLE-81" value="fecha" style="ellipse;whiteSpace=wrap;html=1;align=center;" parent="1" vertex="1">
          <mxGeometry x="300" y="820" width="100" height="40" as="geometry" />
        </mxCell>
        <mxCell id="pqRXHCaq6eYbeY7qeOLE-84" value="devoluciones" style="shape=associativeEntity;whiteSpace=wrap;html=1;align=center;fontFamily=Helvetica;fontSize=11;fontColor=default;labelBackgroundColor=default;" parent="1" vertex="1">
          <mxGeometry x="310" y="710" width="140" height="60" as="geometry" />
        </mxCell>
        <mxCell id="pqRXHCaq6eYbeY7qeOLE-88" style="edgeStyle=none;shape=connector;rounded=0;orthogonalLoop=1;jettySize=auto;html=1;strokeColor=default;align=center;verticalAlign=middle;fontFamily=Helvetica;fontSize=11;fontColor=default;labelBackgroundColor=default;startFill=0;endArrow=none;" parent="1" source="pqRXHCaq6eYbeY7qeOLE-87" target="pqRXHCaq6eYbeY7qeOLE-84" edge="1">
          <mxGeometry relative="1" as="geometry" />
        </mxCell>
        <mxCell id="pqRXHCaq6eYbeY7qeOLE-87" value="id_venta" style="ellipse;whiteSpace=wrap;html=1;align=center;fontStyle=4;fontFamily=Helvetica;fontSize=11;fontColor=default;labelBackgroundColor=default;" parent="1" vertex="1">
          <mxGeometry x="189.99999999999997" y="790" width="100" height="40" as="geometry" />
        </mxCell>
        <mxCell id="pqRXHCaq6eYbeY7qeOLE-90" style="edgeStyle=none;shape=connector;rounded=0;orthogonalLoop=1;jettySize=auto;html=1;strokeColor=default;align=center;verticalAlign=middle;fontFamily=Helvetica;fontSize=11;fontColor=default;labelBackgroundColor=default;startFill=0;endArrow=none;" parent="1" source="pqRXHCaq6eYbeY7qeOLE-89" target="pqRXHCaq6eYbeY7qeOLE-84" edge="1">
          <mxGeometry relative="1" as="geometry" />
        </mxCell>
        <mxCell id="pqRXHCaq6eYbeY7qeOLE-89" value="total_perdido" style="ellipse;whiteSpace=wrap;html=1;align=center;" parent="1" vertex="1">
          <mxGeometry x="440" y="810" width="100" height="40" as="geometry" />
        </mxCell>
        <mxCell id="pqRXHCaq6eYbeY7qeOLE-92" style="edgeStyle=none;shape=connector;rounded=0;orthogonalLoop=1;jettySize=auto;html=1;strokeColor=default;align=center;verticalAlign=middle;fontFamily=Helvetica;fontSize=11;fontColor=default;labelBackgroundColor=default;startFill=0;endArrow=none;" parent="1" source="pqRXHCaq6eYbeY7qeOLE-95" target="PHtaCudt1GkWqmcpYVaI-1" edge="1">
          <mxGeometry relative="1" as="geometry">
            <mxPoint x="11.998401917387127" y="535.0159808261271" as="sourcePoint" />
          </mxGeometry>
        </mxCell>
        <mxCell id="pqRXHCaq6eYbeY7qeOLE-94" style="edgeStyle=none;shape=connector;rounded=0;orthogonalLoop=1;jettySize=auto;html=1;strokeColor=default;align=center;verticalAlign=middle;fontFamily=Helvetica;fontSize=11;fontColor=default;labelBackgroundColor=default;startFill=0;endArrow=none;" parent="1" source="pqRXHCaq6eYbeY7qeOLE-93" target="PHtaCudt1GkWqmcpYVaI-1" edge="1">
          <mxGeometry relative="1" as="geometry" />
        </mxCell>
        <mxCell id="pqRXHCaq6eYbeY7qeOLE-93" value="usuario" style="ellipse;whiteSpace=wrap;html=1;align=center;fontStyle=4;fontFamily=Helvetica;fontSize=11;fontColor=default;labelBackgroundColor=default;" parent="1" vertex="1">
          <mxGeometry x="-150" y="515" width="100" height="40" as="geometry" />
        </mxCell>
        <mxCell id="pqRXHCaq6eYbeY7qeOLE-95" value="nombre" style="ellipse;whiteSpace=wrap;html=1;align=center;fontFamily=Helvetica;fontSize=11;fontColor=default;labelBackgroundColor=default;" parent="1" vertex="1">
          <mxGeometry x="-30" y="530" width="100" height="40" as="geometry" />
        </mxCell>
        <mxCell id="pqRXHCaq6eYbeY7qeOLE-107" value="roles" style="whiteSpace=wrap;html=1;align=center;" parent="1" vertex="1">
          <mxGeometry x="-330" y="440" width="100" height="40" as="geometry" />
        </mxCell>
        <mxCell id="pqRXHCaq6eYbeY7qeOLE-108" style="edgeStyle=none;shape=connector;rounded=0;orthogonalLoop=1;jettySize=auto;html=1;strokeColor=default;align=center;verticalAlign=middle;fontFamily=Helvetica;fontSize=11;fontColor=default;labelBackgroundColor=default;startFill=0;endArrow=none;" parent="1" source="pqRXHCaq6eYbeY7qeOLE-111" target="pqRXHCaq6eYbeY7qeOLE-107" edge="1">
          <mxGeometry relative="1" as="geometry">
            <mxPoint x="-218.00159808261287" y="530.0159808261271" as="sourcePoint" />
          </mxGeometry>
        </mxCell>
        <mxCell id="pqRXHCaq6eYbeY7qeOLE-109" style="edgeStyle=none;shape=connector;rounded=0;orthogonalLoop=1;jettySize=auto;html=1;strokeColor=default;align=center;verticalAlign=middle;fontFamily=Helvetica;fontSize=11;fontColor=default;labelBackgroundColor=default;startFill=0;endArrow=none;" parent="1" source="pqRXHCaq6eYbeY7qeOLE-110" target="pqRXHCaq6eYbeY7qeOLE-107" edge="1">
          <mxGeometry relative="1" as="geometry" />
        </mxCell>
        <mxCell id="pqRXHCaq6eYbeY7qeOLE-110" value="id" style="ellipse;whiteSpace=wrap;html=1;align=center;fontStyle=4;fontFamily=Helvetica;fontSize=11;fontColor=default;labelBackgroundColor=default;" parent="1" vertex="1">
          <mxGeometry x="-420" y="510" width="100" height="40" as="geometry" />
        </mxCell>
        <mxCell id="pqRXHCaq6eYbeY7qeOLE-111" value="nombre" style="ellipse;whiteSpace=wrap;html=1;align=center;fontFamily=Helvetica;fontSize=11;fontColor=default;labelBackgroundColor=default;" parent="1" vertex="1">
          <mxGeometry x="-280" y="510" width="100" height="40" as="geometry" />
        </mxCell>
        <mxCell id="pqRXHCaq6eYbeY7qeOLE-113" style="edgeStyle=none;shape=connector;rounded=0;orthogonalLoop=1;jettySize=auto;html=1;strokeColor=default;align=center;verticalAlign=middle;fontFamily=Helvetica;fontSize=11;fontColor=default;labelBackgroundColor=default;startFill=0;endArrow=none;" parent="1" source="pqRXHCaq6eYbeY7qeOLE-112" target="PHtaCudt1GkWqmcpYVaI-1" edge="1">
          <mxGeometry relative="1" as="geometry" />
        </mxCell>
        <mxCell id="pqRXHCaq6eYbeY7qeOLE-112" value="password" style="ellipse;whiteSpace=wrap;html=1;align=center;fontFamily=Helvetica;fontSize=11;fontColor=default;labelBackgroundColor=default;" parent="1" vertex="1">
          <mxGeometry x="80" y="510" width="100" height="40" as="geometry" />
        </mxCell>
        <mxCell id="pqRXHCaq6eYbeY7qeOLE-114" value="clientes" style="whiteSpace=wrap;html=1;align=center;" parent="1" vertex="1">
          <mxGeometry x="-70" y="677.5" width="100" height="40" as="geometry" />
        </mxCell>
        <mxCell id="pqRXHCaq6eYbeY7qeOLE-115" style="edgeStyle=none;shape=connector;rounded=0;orthogonalLoop=1;jettySize=auto;html=1;strokeColor=default;align=center;verticalAlign=middle;fontFamily=Helvetica;fontSize=11;fontColor=default;labelBackgroundColor=default;startFill=0;endArrow=none;" parent="1" source="pqRXHCaq6eYbeY7qeOLE-118" target="pqRXHCaq6eYbeY7qeOLE-114" edge="1">
          <mxGeometry relative="1" as="geometry">
            <mxPoint x="-28.001598082612873" y="767.5159808261271" as="sourcePoint" />
          </mxGeometry>
        </mxCell>
        <mxCell id="pqRXHCaq6eYbeY7qeOLE-116" style="edgeStyle=none;shape=connector;rounded=0;orthogonalLoop=1;jettySize=auto;html=1;strokeColor=default;align=center;verticalAlign=middle;fontFamily=Helvetica;fontSize=11;fontColor=default;labelBackgroundColor=default;startFill=0;endArrow=none;" parent="1" source="pqRXHCaq6eYbeY7qeOLE-117" target="pqRXHCaq6eYbeY7qeOLE-114" edge="1">
          <mxGeometry relative="1" as="geometry" />
        </mxCell>
        <mxCell id="pqRXHCaq6eYbeY7qeOLE-117" value="nit" style="ellipse;whiteSpace=wrap;html=1;align=center;fontStyle=4;fontFamily=Helvetica;fontSize=11;fontColor=default;labelBackgroundColor=default;" parent="1" vertex="1">
          <mxGeometry x="-190" y="747.5" width="100" height="40" as="geometry" />
        </mxCell>
        <mxCell id="pqRXHCaq6eYbeY7qeOLE-118" value="nombre" style="ellipse;whiteSpace=wrap;html=1;align=center;fontFamily=Helvetica;fontSize=11;fontColor=default;labelBackgroundColor=default;" parent="1" vertex="1">
          <mxGeometry x="-70" y="762.5" width="100" height="40" as="geometry" />
        </mxCell>
        <mxCell id="pqRXHCaq6eYbeY7qeOLE-119" style="edgeStyle=none;shape=connector;rounded=0;orthogonalLoop=1;jettySize=auto;html=1;strokeColor=default;align=center;verticalAlign=middle;fontFamily=Helvetica;fontSize=11;fontColor=default;labelBackgroundColor=default;startFill=0;endArrow=none;" parent="1" source="pqRXHCaq6eYbeY7qeOLE-120" target="pqRXHCaq6eYbeY7qeOLE-114" edge="1">
          <mxGeometry relative="1" as="geometry" />
        </mxCell>
        <mxCell id="pqRXHCaq6eYbeY7qeOLE-120" value="direccion" style="ellipse;whiteSpace=wrap;html=1;align=center;fontFamily=Helvetica;fontSize=11;fontColor=default;labelBackgroundColor=default;" parent="1" vertex="1">
          <mxGeometry x="40" y="742.5" width="100" height="40" as="geometry" />
        </mxCell>
        <mxCell id="pqRXHCaq6eYbeY7qeOLE-122" style="edgeStyle=none;shape=connector;rounded=0;orthogonalLoop=1;jettySize=auto;html=1;strokeColor=default;align=center;verticalAlign=middle;fontFamily=Helvetica;fontSize=11;fontColor=default;labelBackgroundColor=default;startFill=0;endArrow=none;" parent="1" source="pqRXHCaq6eYbeY7qeOLE-121" target="pqRXHCaq6eYbeY7qeOLE-74" edge="1">
          <mxGeometry relative="1" as="geometry" />
        </mxCell>
        <mxCell id="pqRXHCaq6eYbeY7qeOLE-121" value="nit" style="ellipse;whiteSpace=wrap;html=1;align=center;" parent="1" vertex="1">
          <mxGeometry x="270" y="600" width="100" height="40" as="geometry" />
        </mxCell>
        <mxCell id="YTdTHZsRusqODCkZqlyN-1" value="estado" style="ellipse;whiteSpace=wrap;html=1;align=center;fontFamily=Helvetica;fontSize=11;fontColor=default;labelBackgroundColor=default;" vertex="1" parent="1">
          <mxGeometry x="870" y="140" width="100" height="40" as="geometry" />
        </mxCell>
        <mxCell id="YTdTHZsRusqODCkZqlyN-3" style="edgeStyle=none;shape=connector;rounded=0;orthogonalLoop=1;jettySize=auto;html=1;strokeColor=default;align=center;verticalAlign=middle;fontFamily=Helvetica;fontSize=11;fontColor=default;labelBackgroundColor=default;startFill=0;endArrow=none;" edge="1" parent="1" source="YTdTHZsRusqODCkZqlyN-1" target="pqRXHCaq6eYbeY7qeOLE-55">
          <mxGeometry relative="1" as="geometry">
            <mxPoint x="807" y="271" as="sourcePoint" />
            <mxPoint x="771" y="220" as="targetPoint" />
          </mxGeometry>
        </mxCell>
        <mxCell id="RzEP3FZoLsu4mRPynfQo-1" value="&lt;div&gt;Solucionado. Verificación manual en base al estado de cada ensamble&lt;/div&gt;&lt;div&gt;(en proceso/completado)&lt;/div&gt;" style="text;html=1;align=center;verticalAlign=middle;resizable=0;points=[];autosize=1;strokeColor=none;fillColor=none;fontFamily=Helvetica;fontSize=11;fontColor=default;labelBackgroundColor=default;" vertex="1" parent="1">
          <mxGeometry x="870" y="400" width="370" height="40" as="geometry" />
        </mxCell>
        <mxCell id="qMLdZlBjQ_4pAbL9oqua-1" value="id_ensamble" style="ellipse;whiteSpace=wrap;html=1;align=center;fontFamily=Helvetica;fontSize=11;fontColor=default;labelBackgroundColor=default;" vertex="1" parent="1">
          <mxGeometry x="349.59000000000003" y="250" width="120" height="40" as="geometry" />
        </mxCell>
        <mxCell id="qMLdZlBjQ_4pAbL9oqua-3" style="edgeStyle=none;shape=connector;rounded=0;orthogonalLoop=1;jettySize=auto;html=1;strokeColor=default;align=center;verticalAlign=middle;fontFamily=Helvetica;fontSize=11;fontColor=default;labelBackgroundColor=default;startFill=0;endArrow=none;" edge="1" parent="1" source="qMLdZlBjQ_4pAbL9oqua-1" target="pqRXHCaq6eYbeY7qeOLE-5">
          <mxGeometry relative="1" as="geometry">
            <mxPoint x="290" y="270" as="sourcePoint" />
            <mxPoint x="290" y="220" as="targetPoint" />
          </mxGeometry>
        </mxCell>
      </root>
    </mxGraphModel>
  </diagram>
</mxfile>
